{"title":"The Legend Of Michael Mishra 2016 Movies DVDScr XviD New ~ ☻rDX☻","uid":15498518,"size":740338688,"categoryP":"video","categoryS":"movies","magnet":"?xt=urn:btih:79b8fc214c22641767e3a4244ae905735555ddcf&amp;dn=The+Legend+Of+Michael+Mishra+2016+Movies+DVDScr+XviD+New+%7E+%E2%98%BBrDX%E2%98%BB&amp;tr=udp%3A%2F%2Ftracker.leechers-paradise.org%3A6969&amp;tr=udp%3A%2F%2Fzer0day.ch%3A1337&amp;tr=udp%3A%2F%2Fopen.demonii.com%3A1337&amp;tr=udp%3A%2F%2Ftracker.coppersurfer.tk%3A6969&amp;tr=udp%3A%2F%2Fexodus.desync.com%3A6969","seeders":1,"leechers":3,"uploader":"basicssom","files":2,"time":1470464269,"description":"----------------------------------------------------------------\r\nThe Legend Of Michael Mishra 2016 Hindi Movies DVDScr XviD AAC New Source with Sample ☻rDX☻\r\n\r\nSCREEN SHOTS &amp; POSTER:\r\n  \nhttp://postimage.co.nr/2016/8/3g/index.htm  \nhttp://postimage.co.nr/2016/8/3g/1.html  \nhttp://postimage.co.nr/2016/8/3g/2.html  \nhttp://postimage.co.nr/2016/8/3g/3.html  \nhttp://postimage.co.nr/2016/8/3g/4.html  \nhttp://postimage.co.nr/2016/8/3g/5.html  \nhttp://postimage.co.nr/2016/8/3g/6.html  \nhttp://postimage.co.nr/2016/8/3g/7.html  \nhttp://postimage.co.nr/2016/8/3g/8.html  \nhttp://postimage.co.nr/2016/8/3g/9.html  \nhttp://postimage.co.nr/2016/8/3g/10.html\r\n\r\nFormat                                   : Matroska\r\nFormat version                           : Version 4 / Version 2\r\nFile size                                : 699 MiB\r\nDuration                                 : 2 h 3 min\r\nOverall bit rate mode                    : Variable\r\nOverall bit rate                         : 789 kb/s\r\nMovie name                               : The Legend Of Michael Mishra 2016 Hindi Movies DVDScr XviD AAC New Source ☻rDX☻\r\n\r\nVideo\r\nID                                       : 1\r\nFormat                                   : MPEG-4 Visual\r\nFormat profile                           : Advanced   \r\nFormat settings, BVOP                    : 2\r\nFormat settings, QPel                    : No\r\nFormat settings, GMC                     : No warppoints\r\nFormat settings, Matrix                  : Default (H.263)\r\nCodec ID                                 : V_MS/VFW/FOURCC / XVID\r\nCodec ID/Hint                            : XviD\r\nDuration                                 : 2 h 3 min\r\nBit rate                                 : 678 kb/s\r\nWidth                                    : 640 pixels\r\nHeight                                   : 272 pixels\r\nDisplay aspect ratio                     : 2.35:1\r\nFrame rate mode                          : Constant\r\nFrame rate                               : 29.970 (29970/1000) FPS\r\nOriginal frame rate                      : 29.970 (30000/1001) FPS\r\nColor space                              : YUV\r\nChroma subsampling                       : 4:2:0\r\nBit depth                                : 8 bits\r\nScan type                                : Progressive\r\nCompression mode                         : Lossy\r\nBits/(Pixel*Frame)                       : 0.130\r\nStream size                              : 600 MiB (86%)\r\nTitle                                    : ☻rDX☻\r\nWriting library                          : XviD 67\r\nDefault                                  : Yes\r\nForced                                   : No\r\n\r\nAudio\r\nID                                       : 2\r\nFormat                                   : MPEG Audio\r\nFormat version                           : Version 1\r\nFormat profile                           : Layer 3\r\nMode                                     : Joint stereo\r\nCodec ID                                 : A_MPEG/L3\r\nCodec ID/Hint                            : MP3\r\nDuration                                 : 57 min\r\nBit rate mode                            : Variable\r\nBit rate                                 : 96.0 kb/s\r\nChannel(s)                               : 2 channels\r\nSampling rate                            : 32.0 kHz\r\nCompression mode                         : Lossy\r\nStream size                              : 39.6 MiB (6%)\r\nTitle                                    : ☻rDX☻\r\nWriting library                          : LAME3.99r\r\nEncoding settings                        : -m j -V 4 -q 2 -lowpass 15.1 --abr 96\r\nDefault                                  : Yes\r\nForced                                   : No\r\n\r\nIMDB \nhttp://www.imdb.com/title/tt3224258/","torrent":{"xt":"urn:btih:79b8fc214c22641767e3a4244ae905735555ddcf","amp;dn":"The+Legend+Of+Michael+Mishra+2016+Movies+DVDScr+XviD+New+%7E+%E2%98%BBrDX%E2%98%BB","amp;tr":["udp%3A%2F%2Ftracker.leechers-paradise.org%3A6969","udp%3A%2F%2Fzer0day.ch%3A1337","udp%3A%2F%2Fopen.demonii.com%3A1337","udp%3A%2F%2Ftracker.coppersurfer.tk%3A6969","udp%3A%2F%2Fexodus.desync.com%3A6969"],"infoHash":"79b8fc214c22641767e3a4244ae905735555ddcf","infoHashBuffer":{"type":"Buffer","data":[121,184,252,33,76,34,100,23,103,227,164,36,74,233,5,115,85,85,221,207]},"announce":[],"urlList":[]}}